<mxfile host="Electron" agent="Mozilla/5.0 (Windows NT 10.0; Win64; x64) AppleWebKit/537.36 (KHTML, like Gecko) draw.io/26.2.15 Chrome/134.0.6998.205 Electron/35.2.1 Safari/537.36" version="26.2.15">
  <diagram id="R2lEEEUBdFMjLlhIrx00" name="Page-1">
    <mxGraphModel dx="2963" dy="2132" grid="1" gridSize="10" guides="1" tooltips="1" connect="1" arrows="1" fold="1" page="1" pageScale="1" pageWidth="850" pageHeight="1100" math="0" shadow="0" extFonts="Permanent Marker^https://fonts.googleapis.com/css?family=Permanent+Marker">
      <root>
        <mxCell id="0" />
        <mxCell id="1" parent="0" />
        <mxCell id="-V20mJcXpSPPTkpzPlK9-1" value="User" style="rounded=0;whiteSpace=wrap;html=1;labelBackgroundColor=none;fillColor=#FAE5C7;strokeColor=#0F8B8D;fontColor=#143642;" vertex="1" parent="1">
          <mxGeometry x="120" y="190" width="120" height="60" as="geometry" />
        </mxCell>
        <mxCell id="-V20mJcXpSPPTkpzPlK9-2" value="&lt;u&gt;UserId&lt;/u&gt;" style="ellipse;whiteSpace=wrap;html=1;labelBackgroundColor=none;fillColor=#FAE5C7;strokeColor=#0F8B8D;fontColor=#143642;" vertex="1" parent="1">
          <mxGeometry x="10" y="110" width="80" height="40" as="geometry" />
        </mxCell>
        <mxCell id="-V20mJcXpSPPTkpzPlK9-3" value="Email" style="ellipse;whiteSpace=wrap;html=1;labelBackgroundColor=none;fillColor=#FAE5C7;strokeColor=#0F8B8D;fontColor=#143642;" vertex="1" parent="1">
          <mxGeometry x="110" y="80" width="60" height="40" as="geometry" />
        </mxCell>
        <mxCell id="-V20mJcXpSPPTkpzPlK9-4" value="FullName" style="ellipse;whiteSpace=wrap;html=1;labelBackgroundColor=none;fillColor=#FAE5C7;strokeColor=#0F8B8D;fontColor=#143642;" vertex="1" parent="1">
          <mxGeometry x="40" y="70" width="70" height="40" as="geometry" />
        </mxCell>
        <mxCell id="-V20mJcXpSPPTkpzPlK9-6" value="Password" style="ellipse;whiteSpace=wrap;html=1;labelBackgroundColor=none;fillColor=#FAE5C7;strokeColor=#0F8B8D;fontColor=#143642;" vertex="1" parent="1">
          <mxGeometry x="150" y="50" width="80" height="40" as="geometry" />
        </mxCell>
        <mxCell id="-V20mJcXpSPPTkpzPlK9-7" value="PhoneNumber" style="ellipse;shape=doubleEllipse;margin=3;whiteSpace=wrap;html=1;align=center;labelBackgroundColor=none;fillColor=#FAE5C7;strokeColor=#0F8B8D;fontColor=#143642;" vertex="1" parent="1">
          <mxGeometry x="200" y="90" width="90" height="40" as="geometry" />
        </mxCell>
        <mxCell id="-V20mJcXpSPPTkpzPlK9-8" value="Role" style="ellipse;whiteSpace=wrap;html=1;labelBackgroundColor=none;fillColor=#FAE5C7;strokeColor=#0F8B8D;fontColor=#143642;" vertex="1" parent="1">
          <mxGeometry x="250" y="130" width="60" height="30" as="geometry" />
        </mxCell>
        <mxCell id="-V20mJcXpSPPTkpzPlK9-10" value="CreatedAt" style="ellipse;whiteSpace=wrap;html=1;labelBackgroundColor=none;fillColor=#FAE5C7;strokeColor=#0F8B8D;fontColor=#143642;" vertex="1" parent="1">
          <mxGeometry x="10" y="170" width="80" height="40" as="geometry" />
        </mxCell>
        <mxCell id="-V20mJcXpSPPTkpzPlK9-11" value="" style="endArrow=none;html=1;rounded=0;entryX=1;entryY=1;entryDx=0;entryDy=0;exitX=0;exitY=0.5;exitDx=0;exitDy=0;labelBackgroundColor=none;strokeColor=#A8201A;fontColor=default;" edge="1" parent="1" source="-V20mJcXpSPPTkpzPlK9-1" target="-V20mJcXpSPPTkpzPlK9-10">
          <mxGeometry width="50" height="50" relative="1" as="geometry">
            <mxPoint x="400" y="350" as="sourcePoint" />
            <mxPoint x="450" y="300" as="targetPoint" />
          </mxGeometry>
        </mxCell>
        <mxCell id="-V20mJcXpSPPTkpzPlK9-12" value="" style="endArrow=none;html=1;rounded=0;exitX=0;exitY=0;exitDx=0;exitDy=0;labelBackgroundColor=none;strokeColor=#A8201A;fontColor=default;" edge="1" parent="1" source="-V20mJcXpSPPTkpzPlK9-1" target="-V20mJcXpSPPTkpzPlK9-2">
          <mxGeometry width="50" height="50" relative="1" as="geometry">
            <mxPoint x="110" y="170" as="sourcePoint" />
            <mxPoint x="450" y="300" as="targetPoint" />
          </mxGeometry>
        </mxCell>
        <mxCell id="-V20mJcXpSPPTkpzPlK9-13" value="" style="endArrow=none;html=1;rounded=0;labelBackgroundColor=none;strokeColor=#A8201A;fontColor=default;" edge="1" parent="1" source="-V20mJcXpSPPTkpzPlK9-1" target="-V20mJcXpSPPTkpzPlK9-4">
          <mxGeometry width="50" height="50" relative="1" as="geometry">
            <mxPoint x="400" y="350" as="sourcePoint" />
            <mxPoint x="450" y="300" as="targetPoint" />
          </mxGeometry>
        </mxCell>
        <mxCell id="-V20mJcXpSPPTkpzPlK9-14" value="" style="endArrow=none;html=1;rounded=0;entryX=0.5;entryY=1;entryDx=0;entryDy=0;labelBackgroundColor=none;strokeColor=#A8201A;fontColor=default;" edge="1" parent="1" source="-V20mJcXpSPPTkpzPlK9-1" target="-V20mJcXpSPPTkpzPlK9-3">
          <mxGeometry width="50" height="50" relative="1" as="geometry">
            <mxPoint x="400" y="350" as="sourcePoint" />
            <mxPoint x="450" y="300" as="targetPoint" />
          </mxGeometry>
        </mxCell>
        <mxCell id="-V20mJcXpSPPTkpzPlK9-15" value="" style="endArrow=none;html=1;rounded=0;entryX=0.5;entryY=1;entryDx=0;entryDy=0;exitX=0.667;exitY=0;exitDx=0;exitDy=0;exitPerimeter=0;labelBackgroundColor=none;strokeColor=#A8201A;fontColor=default;" edge="1" parent="1" source="-V20mJcXpSPPTkpzPlK9-1" target="-V20mJcXpSPPTkpzPlK9-6">
          <mxGeometry width="50" height="50" relative="1" as="geometry">
            <mxPoint x="400" y="350" as="sourcePoint" />
            <mxPoint x="450" y="300" as="targetPoint" />
          </mxGeometry>
        </mxCell>
        <mxCell id="-V20mJcXpSPPTkpzPlK9-16" value="" style="endArrow=none;html=1;rounded=0;entryX=0.258;entryY=0.865;entryDx=0;entryDy=0;entryPerimeter=0;exitX=0.86;exitY=0;exitDx=0;exitDy=0;exitPerimeter=0;labelBackgroundColor=none;strokeColor=#A8201A;fontColor=default;" edge="1" parent="1" source="-V20mJcXpSPPTkpzPlK9-1" target="-V20mJcXpSPPTkpzPlK9-7">
          <mxGeometry width="50" height="50" relative="1" as="geometry">
            <mxPoint x="400" y="350" as="sourcePoint" />
            <mxPoint x="450" y="300" as="targetPoint" />
          </mxGeometry>
        </mxCell>
        <mxCell id="-V20mJcXpSPPTkpzPlK9-17" value="" style="endArrow=none;html=1;rounded=0;entryX=0;entryY=1;entryDx=0;entryDy=0;exitX=1;exitY=0;exitDx=0;exitDy=0;labelBackgroundColor=none;strokeColor=#A8201A;fontColor=default;" edge="1" parent="1" source="-V20mJcXpSPPTkpzPlK9-1" target="-V20mJcXpSPPTkpzPlK9-8">
          <mxGeometry width="50" height="50" relative="1" as="geometry">
            <mxPoint x="400" y="350" as="sourcePoint" />
            <mxPoint x="450" y="300" as="targetPoint" />
          </mxGeometry>
        </mxCell>
        <mxCell id="-V20mJcXpSPPTkpzPlK9-18" value="Property" style="rounded=0;whiteSpace=wrap;html=1;labelBackgroundColor=none;fillColor=#FAE5C7;strokeColor=#0F8B8D;fontColor=#143642;" vertex="1" parent="1">
          <mxGeometry x="640" y="180" width="120" height="60" as="geometry" />
        </mxCell>
        <mxCell id="-V20mJcXpSPPTkpzPlK9-19" value="Price" style="ellipse;whiteSpace=wrap;html=1;labelBackgroundColor=none;fillColor=#FAE5C7;strokeColor=#0F8B8D;fontColor=#143642;" vertex="1" parent="1">
          <mxGeometry x="840" width="70" height="30" as="geometry" />
        </mxCell>
        <mxCell id="-V20mJcXpSPPTkpzPlK9-20" value="Description" style="ellipse;whiteSpace=wrap;html=1;labelBackgroundColor=none;fillColor=#FAE5C7;strokeColor=#0F8B8D;fontColor=#143642;" vertex="1" parent="1">
          <mxGeometry x="670" y="80" width="90" height="30" as="geometry" />
        </mxCell>
        <mxCell id="-V20mJcXpSPPTkpzPlK9-21" value="Title" style="ellipse;whiteSpace=wrap;html=1;labelBackgroundColor=none;fillColor=#FAE5C7;strokeColor=#0F8B8D;fontColor=#143642;" vertex="1" parent="1">
          <mxGeometry x="590" y="85" width="70" height="30" as="geometry" />
        </mxCell>
        <mxCell id="-V20mJcXpSPPTkpzPlK9-22" value="&lt;u&gt;PropertyId&lt;/u&gt;" style="ellipse;whiteSpace=wrap;html=1;labelBackgroundColor=none;fillColor=#FAE5C7;strokeColor=#0F8B8D;fontColor=#143642;" vertex="1" parent="1">
          <mxGeometry x="560" y="120" width="80" height="30" as="geometry" />
        </mxCell>
        <mxCell id="-V20mJcXpSPPTkpzPlK9-23" value="AreaSize" style="ellipse;whiteSpace=wrap;html=1;labelBackgroundColor=none;fillColor=#FAE5C7;strokeColor=#0F8B8D;fontColor=#143642;" vertex="1" parent="1">
          <mxGeometry x="630" y="40" width="75" height="30" as="geometry" />
        </mxCell>
        <mxCell id="-V20mJcXpSPPTkpzPlK9-24" value="Address" style="ellipse;whiteSpace=wrap;html=1;labelBackgroundColor=none;fillColor=#FAE5C7;strokeColor=#0F8B8D;fontColor=#143642;" vertex="1" parent="1">
          <mxGeometry x="740" y="35" width="70" height="40" as="geometry" />
        </mxCell>
        <mxCell id="-V20mJcXpSPPTkpzPlK9-25" value="IsForRent" style="ellipse;whiteSpace=wrap;html=1;labelBackgroundColor=none;fillColor=#FAE5C7;strokeColor=#0F8B8D;fontColor=#143642;" vertex="1" parent="1">
          <mxGeometry x="910" y="-30" width="90" height="30" as="geometry" />
        </mxCell>
        <mxCell id="-V20mJcXpSPPTkpzPlK9-27" value="RoomsCount" style="ellipse;whiteSpace=wrap;html=1;labelBackgroundColor=none;fillColor=#FAE5C7;strokeColor=#0F8B8D;fontColor=#143642;" vertex="1" parent="1">
          <mxGeometry x="885" y="50" width="90" height="30" as="geometry" />
        </mxCell>
        <mxCell id="-V20mJcXpSPPTkpzPlK9-29" value="Floor" style="ellipse;whiteSpace=wrap;html=1;labelBackgroundColor=none;fillColor=#FAE5C7;strokeColor=#0F8B8D;fontColor=#143642;" vertex="1" parent="1">
          <mxGeometry x="550" y="150" width="70" height="30" as="geometry" />
        </mxCell>
        <mxCell id="-V20mJcXpSPPTkpzPlK9-30" value="BathroomsCount" style="ellipse;whiteSpace=wrap;html=1;labelBackgroundColor=none;fillColor=#FAE5C7;strokeColor=#0F8B8D;fontColor=#143642;" vertex="1" parent="1">
          <mxGeometry x="975" y="75" width="120" height="30" as="geometry" />
        </mxCell>
        <mxCell id="-V20mJcXpSPPTkpzPlK9-43" value="" style="endArrow=none;html=1;rounded=0;entryX=0.611;entryY=0.97;entryDx=0;entryDy=0;entryPerimeter=0;labelBackgroundColor=none;strokeColor=#A8201A;fontColor=default;" edge="1" parent="1" source="-V20mJcXpSPPTkpzPlK9-18" target="-V20mJcXpSPPTkpzPlK9-24">
          <mxGeometry width="50" height="50" relative="1" as="geometry">
            <mxPoint x="410" y="340" as="sourcePoint" />
            <mxPoint x="460" y="290" as="targetPoint" />
          </mxGeometry>
        </mxCell>
        <mxCell id="-V20mJcXpSPPTkpzPlK9-44" value="" style="endArrow=none;html=1;rounded=0;entryX=1;entryY=0.5;entryDx=0;entryDy=0;labelBackgroundColor=none;strokeColor=#A8201A;fontColor=default;" edge="1" parent="1" target="-V20mJcXpSPPTkpzPlK9-21">
          <mxGeometry width="50" height="50" relative="1" as="geometry">
            <mxPoint x="680" y="180" as="sourcePoint" />
            <mxPoint x="460" y="290" as="targetPoint" />
          </mxGeometry>
        </mxCell>
        <mxCell id="-V20mJcXpSPPTkpzPlK9-45" value="" style="endArrow=none;html=1;rounded=0;entryX=0.427;entryY=1.073;entryDx=0;entryDy=0;entryPerimeter=0;labelBackgroundColor=none;strokeColor=#A8201A;fontColor=default;" edge="1" parent="1" source="-V20mJcXpSPPTkpzPlK9-18" target="-V20mJcXpSPPTkpzPlK9-23">
          <mxGeometry width="50" height="50" relative="1" as="geometry">
            <mxPoint x="410" y="340" as="sourcePoint" />
            <mxPoint x="460" y="290" as="targetPoint" />
          </mxGeometry>
        </mxCell>
        <mxCell id="-V20mJcXpSPPTkpzPlK9-46" value="" style="endArrow=none;html=1;rounded=0;exitX=0.75;exitY=0;exitDx=0;exitDy=0;labelBackgroundColor=none;strokeColor=#A8201A;fontColor=default;" edge="1" parent="1" source="-V20mJcXpSPPTkpzPlK9-18" target="-V20mJcXpSPPTkpzPlK9-19">
          <mxGeometry width="50" height="50" relative="1" as="geometry">
            <mxPoint x="410" y="340" as="sourcePoint" />
            <mxPoint x="460" y="290" as="targetPoint" />
          </mxGeometry>
        </mxCell>
        <mxCell id="-V20mJcXpSPPTkpzPlK9-47" value="" style="endArrow=none;html=1;rounded=0;exitX=1;exitY=0;exitDx=0;exitDy=0;labelBackgroundColor=none;strokeColor=#A8201A;fontColor=default;" edge="1" parent="1" source="-V20mJcXpSPPTkpzPlK9-18" target="-V20mJcXpSPPTkpzPlK9-30">
          <mxGeometry width="50" height="50" relative="1" as="geometry">
            <mxPoint x="760" y="210" as="sourcePoint" />
            <mxPoint x="460" y="290" as="targetPoint" />
          </mxGeometry>
        </mxCell>
        <mxCell id="-V20mJcXpSPPTkpzPlK9-48" value="" style="endArrow=none;html=1;rounded=0;exitX=0.883;exitY=0.017;exitDx=0;exitDy=0;exitPerimeter=0;labelBackgroundColor=none;strokeColor=#A8201A;fontColor=default;" edge="1" parent="1" source="-V20mJcXpSPPTkpzPlK9-18" target="-V20mJcXpSPPTkpzPlK9-25">
          <mxGeometry width="50" height="50" relative="1" as="geometry">
            <mxPoint x="410" y="340" as="sourcePoint" />
            <mxPoint x="460" y="290" as="targetPoint" />
          </mxGeometry>
        </mxCell>
        <mxCell id="-V20mJcXpSPPTkpzPlK9-49" value="" style="endArrow=none;html=1;rounded=0;entryX=0;entryY=0.5;entryDx=0;entryDy=0;exitX=1;exitY=0;exitDx=0;exitDy=0;labelBackgroundColor=none;strokeColor=#A8201A;fontColor=default;" edge="1" parent="1" source="-V20mJcXpSPPTkpzPlK9-18" target="-V20mJcXpSPPTkpzPlK9-27">
          <mxGeometry width="50" height="50" relative="1" as="geometry">
            <mxPoint x="410" y="340" as="sourcePoint" />
            <mxPoint x="460" y="290" as="targetPoint" />
          </mxGeometry>
        </mxCell>
        <mxCell id="-V20mJcXpSPPTkpzPlK9-50" value="" style="endArrow=none;html=1;rounded=0;entryX=1;entryY=1;entryDx=0;entryDy=0;labelBackgroundColor=none;strokeColor=#A8201A;fontColor=default;" edge="1" parent="1" source="-V20mJcXpSPPTkpzPlK9-18" target="-V20mJcXpSPPTkpzPlK9-22">
          <mxGeometry width="50" height="50" relative="1" as="geometry">
            <mxPoint x="410" y="340" as="sourcePoint" />
            <mxPoint x="460" y="290" as="targetPoint" />
          </mxGeometry>
        </mxCell>
        <mxCell id="-V20mJcXpSPPTkpzPlK9-51" value="" style="endArrow=none;html=1;rounded=0;labelBackgroundColor=none;strokeColor=#A8201A;fontColor=default;" edge="1" parent="1" source="-V20mJcXpSPPTkpzPlK9-18" target="-V20mJcXpSPPTkpzPlK9-20">
          <mxGeometry width="50" height="50" relative="1" as="geometry">
            <mxPoint x="410" y="340" as="sourcePoint" />
            <mxPoint x="460" y="290" as="targetPoint" />
          </mxGeometry>
        </mxCell>
        <mxCell id="-V20mJcXpSPPTkpzPlK9-52" value="" style="endArrow=none;html=1;rounded=0;entryX=1;entryY=1;entryDx=0;entryDy=0;labelBackgroundColor=none;strokeColor=#A8201A;fontColor=default;" edge="1" parent="1" source="-V20mJcXpSPPTkpzPlK9-18" target="-V20mJcXpSPPTkpzPlK9-29">
          <mxGeometry width="50" height="50" relative="1" as="geometry">
            <mxPoint x="410" y="340" as="sourcePoint" />
            <mxPoint x="460" y="290" as="targetPoint" />
          </mxGeometry>
        </mxCell>
        <mxCell id="-V20mJcXpSPPTkpzPlK9-53" value="&lt;strong data-end=&quot;293&quot; data-start=&quot;278&quot;&gt;&lt;code data-end=&quot;291&quot; data-start=&quot;280&quot;&gt;CreatedAt&lt;/code&gt;&lt;/strong&gt;" style="ellipse;whiteSpace=wrap;html=1;labelBackgroundColor=none;fillColor=#FAE5C7;strokeColor=#0F8B8D;fontColor=#143642;" vertex="1" parent="1">
          <mxGeometry x="1020" y="15" width="90" height="40" as="geometry" />
        </mxCell>
        <mxCell id="-V20mJcXpSPPTkpzPlK9-54" value="" style="endArrow=none;html=1;rounded=0;labelBackgroundColor=none;strokeColor=#A8201A;fontColor=default;" edge="1" parent="1" source="-V20mJcXpSPPTkpzPlK9-18" target="-V20mJcXpSPPTkpzPlK9-53">
          <mxGeometry width="50" height="50" relative="1" as="geometry">
            <mxPoint x="410" y="340" as="sourcePoint" />
            <mxPoint x="460" y="290" as="targetPoint" />
          </mxGeometry>
        </mxCell>
        <mxCell id="-V20mJcXpSPPTkpzPlK9-55" value="PropertyImage" style="rounded=0;whiteSpace=wrap;html=1;labelBackgroundColor=none;fillColor=#FAE5C7;strokeColor=#0F8B8D;fontColor=#143642;" vertex="1" parent="1">
          <mxGeometry x="620" y="533.34" width="120" height="60" as="geometry" />
        </mxCell>
        <mxCell id="-V20mJcXpSPPTkpzPlK9-56" value="ImageUrl" style="ellipse;whiteSpace=wrap;html=1;labelBackgroundColor=none;fillColor=#FAE5C7;strokeColor=#0F8B8D;fontColor=#143642;" vertex="1" parent="1">
          <mxGeometry x="510" y="543.34" width="90" height="40" as="geometry" />
        </mxCell>
        <mxCell id="-V20mJcXpSPPTkpzPlK9-57" value="&lt;u&gt;ImageId&lt;/u&gt;" style="ellipse;whiteSpace=wrap;html=1;labelBackgroundColor=none;fillColor=#FAE5C7;strokeColor=#0F8B8D;fontColor=#143642;" vertex="1" parent="1">
          <mxGeometry x="520" y="503.34" width="80" height="30" as="geometry" />
        </mxCell>
        <mxCell id="-V20mJcXpSPPTkpzPlK9-58" value="" style="endArrow=none;html=1;rounded=0;exitX=1;exitY=1;exitDx=0;exitDy=0;entryX=0;entryY=0.75;entryDx=0;entryDy=0;labelBackgroundColor=none;strokeColor=#A8201A;fontColor=default;" edge="1" parent="1" source="-V20mJcXpSPPTkpzPlK9-56" target="-V20mJcXpSPPTkpzPlK9-55">
          <mxGeometry width="50" height="50" relative="1" as="geometry">
            <mxPoint x="1150" y="393.34" as="sourcePoint" />
            <mxPoint x="1200" y="343.34" as="targetPoint" />
          </mxGeometry>
        </mxCell>
        <mxCell id="-V20mJcXpSPPTkpzPlK9-59" value="" style="endArrow=none;html=1;rounded=0;exitX=1;exitY=0.5;exitDx=0;exitDy=0;labelBackgroundColor=none;strokeColor=#A8201A;fontColor=default;" edge="1" parent="1" source="-V20mJcXpSPPTkpzPlK9-57" target="-V20mJcXpSPPTkpzPlK9-55">
          <mxGeometry width="50" height="50" relative="1" as="geometry">
            <mxPoint x="1150" y="393.34" as="sourcePoint" />
            <mxPoint x="1200" y="343.34" as="targetPoint" />
          </mxGeometry>
        </mxCell>
        <mxCell id="-V20mJcXpSPPTkpzPlK9-61" value="City" style="rounded=0;whiteSpace=wrap;html=1;labelBackgroundColor=none;fillColor=#FAE5C7;strokeColor=#0F8B8D;fontColor=#143642;" vertex="1" parent="1">
          <mxGeometry x="870" y="630" width="120" height="60" as="geometry" />
        </mxCell>
        <mxCell id="-V20mJcXpSPPTkpzPlK9-62" value="CityName" style="ellipse;whiteSpace=wrap;html=1;labelBackgroundColor=none;fillColor=#FAE5C7;strokeColor=#0F8B8D;fontColor=#143642;" vertex="1" parent="1">
          <mxGeometry x="970" y="570" width="80" height="30" as="geometry" />
        </mxCell>
        <mxCell id="-V20mJcXpSPPTkpzPlK9-63" value="&lt;u&gt;CityId&lt;/u&gt;" style="ellipse;whiteSpace=wrap;html=1;labelBackgroundColor=none;fillColor=#FAE5C7;strokeColor=#0F8B8D;fontColor=#143642;" vertex="1" parent="1">
          <mxGeometry x="1000" y="610" width="70" height="30" as="geometry" />
        </mxCell>
        <mxCell id="-V20mJcXpSPPTkpzPlK9-64" value="" style="endArrow=none;html=1;rounded=0;exitX=1;exitY=0.5;exitDx=0;exitDy=0;entryX=0.5;entryY=1;entryDx=0;entryDy=0;labelBackgroundColor=none;strokeColor=#A8201A;fontColor=default;" edge="1" parent="1" source="-V20mJcXpSPPTkpzPlK9-61" target="-V20mJcXpSPPTkpzPlK9-63">
          <mxGeometry width="50" height="50" relative="1" as="geometry">
            <mxPoint x="910" y="500" as="sourcePoint" />
            <mxPoint x="960" y="450" as="targetPoint" />
          </mxGeometry>
        </mxCell>
        <mxCell id="-V20mJcXpSPPTkpzPlK9-65" value="" style="endArrow=none;html=1;rounded=0;exitX=1;exitY=0;exitDx=0;exitDy=0;labelBackgroundColor=none;strokeColor=#A8201A;fontColor=default;" edge="1" parent="1" source="-V20mJcXpSPPTkpzPlK9-61" target="-V20mJcXpSPPTkpzPlK9-62">
          <mxGeometry width="50" height="50" relative="1" as="geometry">
            <mxPoint x="910" y="500" as="sourcePoint" />
            <mxPoint x="960" y="450" as="targetPoint" />
          </mxGeometry>
        </mxCell>
        <mxCell id="-V20mJcXpSPPTkpzPlK9-66" value="Booking&amp;nbsp;" style="rounded=0;whiteSpace=wrap;html=1;labelBackgroundColor=none;fillColor=#FAE5C7;strokeColor=#0F8B8D;fontColor=#143642;" vertex="1" parent="1">
          <mxGeometry x="350" y="425" width="120" height="60" as="geometry" />
        </mxCell>
        <mxCell id="-V20mJcXpSPPTkpzPlK9-67" value="InquiryDate" style="ellipse;whiteSpace=wrap;html=1;labelBackgroundColor=none;fillColor=#FAE5C7;strokeColor=#0F8B8D;fontColor=#143642;" vertex="1" parent="1">
          <mxGeometry x="345" y="320" width="90" height="20" as="geometry" />
        </mxCell>
        <mxCell id="-V20mJcXpSPPTkpzPlK9-68" value="Message" style="ellipse;whiteSpace=wrap;html=1;labelBackgroundColor=none;fillColor=#FAE5C7;strokeColor=#0F8B8D;fontColor=#143642;" vertex="1" parent="1">
          <mxGeometry x="470" y="345" width="80" height="30" as="geometry" />
        </mxCell>
        <mxCell id="-V20mJcXpSPPTkpzPlK9-69" value="&lt;u&gt;InquiryId&lt;/u&gt;" style="ellipse;whiteSpace=wrap;html=1;labelBackgroundColor=none;fillColor=#FAE5C7;strokeColor=#0F8B8D;fontColor=#143642;" vertex="1" parent="1">
          <mxGeometry x="435" y="320" width="70" height="30" as="geometry" />
        </mxCell>
        <mxCell id="-V20mJcXpSPPTkpzPlK9-70" value="" style="endArrow=none;html=1;rounded=0;exitX=1;exitY=0.25;exitDx=0;exitDy=0;labelBackgroundColor=none;strokeColor=#A8201A;fontColor=default;" edge="1" parent="1" source="-V20mJcXpSPPTkpzPlK9-66" target="-V20mJcXpSPPTkpzPlK9-68">
          <mxGeometry width="50" height="50" relative="1" as="geometry">
            <mxPoint x="690" y="210" as="sourcePoint" />
            <mxPoint x="740" y="160" as="targetPoint" />
          </mxGeometry>
        </mxCell>
        <mxCell id="-V20mJcXpSPPTkpzPlK9-71" value="" style="endArrow=none;html=1;rounded=0;entryX=0.057;entryY=0.753;entryDx=0;entryDy=0;entryPerimeter=0;labelBackgroundColor=none;strokeColor=#A8201A;fontColor=default;" edge="1" parent="1" source="-V20mJcXpSPPTkpzPlK9-66" target="-V20mJcXpSPPTkpzPlK9-69">
          <mxGeometry width="50" height="50" relative="1" as="geometry">
            <mxPoint x="690" y="210" as="sourcePoint" />
            <mxPoint x="740" y="160" as="targetPoint" />
          </mxGeometry>
        </mxCell>
        <mxCell id="-V20mJcXpSPPTkpzPlK9-72" value="" style="endArrow=none;html=1;rounded=0;exitX=0;exitY=1;exitDx=0;exitDy=0;labelBackgroundColor=none;strokeColor=#A8201A;fontColor=default;" edge="1" parent="1" source="-V20mJcXpSPPTkpzPlK9-67" target="-V20mJcXpSPPTkpzPlK9-66">
          <mxGeometry width="50" height="50" relative="1" as="geometry">
            <mxPoint x="690" y="210" as="sourcePoint" />
            <mxPoint x="740" y="160" as="targetPoint" />
          </mxGeometry>
        </mxCell>
        <mxCell id="-V20mJcXpSPPTkpzPlK9-73" value="PropertyType" style="rounded=0;whiteSpace=wrap;html=1;labelBackgroundColor=none;fillColor=#FAE5C7;strokeColor=#0F8B8D;fontColor=#143642;" vertex="1" parent="1">
          <mxGeometry x="1090" y="305" width="120" height="60" as="geometry" />
        </mxCell>
        <mxCell id="-V20mJcXpSPPTkpzPlK9-74" value="TypeName" style="ellipse;whiteSpace=wrap;html=1;labelBackgroundColor=none;fillColor=#FAE5C7;strokeColor=#0F8B8D;fontColor=#143642;" vertex="1" parent="1">
          <mxGeometry x="1210" y="255" width="80" height="30" as="geometry" />
        </mxCell>
        <mxCell id="-V20mJcXpSPPTkpzPlK9-75" value="&lt;u&gt;PropertyTypeId&lt;/u&gt;" style="ellipse;whiteSpace=wrap;html=1;labelBackgroundColor=none;fillColor=#FAE5C7;strokeColor=#0F8B8D;fontColor=#143642;" vertex="1" parent="1">
          <mxGeometry x="1220" y="295" width="100" height="40" as="geometry" />
        </mxCell>
        <mxCell id="-V20mJcXpSPPTkpzPlK9-76" value="" style="endArrow=none;html=1;rounded=0;entryX=0;entryY=1;entryDx=0;entryDy=0;exitX=1;exitY=0;exitDx=0;exitDy=0;labelBackgroundColor=none;strokeColor=#A8201A;fontColor=default;" edge="1" parent="1" source="-V20mJcXpSPPTkpzPlK9-73" target="-V20mJcXpSPPTkpzPlK9-74">
          <mxGeometry width="50" height="50" relative="1" as="geometry">
            <mxPoint x="720" y="275" as="sourcePoint" />
            <mxPoint x="770" y="225" as="targetPoint" />
          </mxGeometry>
        </mxCell>
        <mxCell id="-V20mJcXpSPPTkpzPlK9-77" value="" style="endArrow=none;html=1;rounded=0;exitX=0.97;exitY=0.617;exitDx=0;exitDy=0;exitPerimeter=0;labelBackgroundColor=none;strokeColor=#A8201A;fontColor=default;" edge="1" parent="1" source="-V20mJcXpSPPTkpzPlK9-73" target="-V20mJcXpSPPTkpzPlK9-75">
          <mxGeometry width="50" height="50" relative="1" as="geometry">
            <mxPoint x="720" y="275" as="sourcePoint" />
            <mxPoint x="770" y="225" as="targetPoint" />
          </mxGeometry>
        </mxCell>
        <mxCell id="-V20mJcXpSPPTkpzPlK9-81" value="SubscriptionPlan" style="rounded=0;whiteSpace=wrap;html=1;labelBackgroundColor=none;fillColor=#FAE5C7;strokeColor=#0F8B8D;fontColor=#143642;" vertex="1" parent="1">
          <mxGeometry x="-340" y="470" width="120" height="60" as="geometry" />
        </mxCell>
        <mxCell id="-V20mJcXpSPPTkpzPlK9-82" value="&lt;u&gt;PlanId&lt;/u&gt;" style="ellipse;whiteSpace=wrap;html=1;labelBackgroundColor=none;fillColor=#FAE5C7;strokeColor=#0F8B8D;fontColor=#143642;" vertex="1" parent="1">
          <mxGeometry x="-320" y="395" width="80" height="30" as="geometry" />
        </mxCell>
        <mxCell id="-V20mJcXpSPPTkpzPlK9-83" value="PlanName" style="ellipse;whiteSpace=wrap;html=1;labelBackgroundColor=none;fillColor=#FAE5C7;strokeColor=#0F8B8D;fontColor=#143642;" vertex="1" parent="1">
          <mxGeometry x="-270" y="350" width="90" height="40" as="geometry" />
        </mxCell>
        <mxCell id="-V20mJcXpSPPTkpzPlK9-84" value="Price" style="ellipse;whiteSpace=wrap;html=1;labelBackgroundColor=none;fillColor=#FAE5C7;strokeColor=#0F8B8D;fontColor=#143642;" vertex="1" parent="1">
          <mxGeometry x="-350" y="350" width="60" height="30" as="geometry" />
        </mxCell>
        <mxCell id="-V20mJcXpSPPTkpzPlK9-85" value="DurationInDays" style="ellipse;whiteSpace=wrap;html=1;labelBackgroundColor=none;fillColor=#FAE5C7;strokeColor=#0F8B8D;fontColor=#143642;" vertex="1" parent="1">
          <mxGeometry x="-210" y="390" width="120" height="30" as="geometry" />
        </mxCell>
        <mxCell id="-V20mJcXpSPPTkpzPlK9-87" value="CreatedAt" style="ellipse;whiteSpace=wrap;html=1;labelBackgroundColor=none;fillColor=#FAE5C7;strokeColor=#0F8B8D;fontColor=#143642;" vertex="1" parent="1">
          <mxGeometry x="-410" y="375" width="70" height="35" as="geometry" />
        </mxCell>
        <mxCell id="-V20mJcXpSPPTkpzPlK9-88" value="MaxProperties" style="ellipse;whiteSpace=wrap;html=1;labelBackgroundColor=none;fillColor=#FAE5C7;strokeColor=#0F8B8D;fontColor=#143642;" vertex="1" parent="1">
          <mxGeometry x="-160" y="440" width="120" height="30" as="geometry" />
        </mxCell>
        <mxCell id="-V20mJcXpSPPTkpzPlK9-89" value="" style="endArrow=none;html=1;rounded=0;labelBackgroundColor=none;strokeColor=#A8201A;fontColor=default;" edge="1" parent="1" source="-V20mJcXpSPPTkpzPlK9-82">
          <mxGeometry width="50" height="50" relative="1" as="geometry">
            <mxPoint x="-720" y="620" as="sourcePoint" />
            <mxPoint x="-270" y="465" as="targetPoint" />
          </mxGeometry>
        </mxCell>
        <mxCell id="-V20mJcXpSPPTkpzPlK9-90" value="" style="endArrow=none;html=1;rounded=0;entryX=0.367;entryY=1.073;entryDx=0;entryDy=0;entryPerimeter=0;exitX=0.36;exitY=0;exitDx=0;exitDy=0;exitPerimeter=0;labelBackgroundColor=none;strokeColor=#A8201A;fontColor=default;" edge="1" parent="1" source="-V20mJcXpSPPTkpzPlK9-81" target="-V20mJcXpSPPTkpzPlK9-84">
          <mxGeometry width="50" height="50" relative="1" as="geometry">
            <mxPoint x="-720" y="620" as="sourcePoint" />
            <mxPoint x="-670" y="570" as="targetPoint" />
          </mxGeometry>
        </mxCell>
        <mxCell id="-V20mJcXpSPPTkpzPlK9-91" value="" style="endArrow=none;html=1;rounded=0;labelBackgroundColor=none;strokeColor=#A8201A;fontColor=default;" edge="1" parent="1" target="-V20mJcXpSPPTkpzPlK9-83">
          <mxGeometry width="50" height="50" relative="1" as="geometry">
            <mxPoint x="-230" y="465" as="sourcePoint" />
            <mxPoint x="-670" y="570" as="targetPoint" />
          </mxGeometry>
        </mxCell>
        <mxCell id="-V20mJcXpSPPTkpzPlK9-92" value="" style="endArrow=none;html=1;rounded=0;entryX=0.077;entryY=0.853;entryDx=0;entryDy=0;exitX=0.973;exitY=0.12;exitDx=0;exitDy=0;exitPerimeter=0;entryPerimeter=0;labelBackgroundColor=none;strokeColor=#A8201A;fontColor=default;" edge="1" parent="1" source="-V20mJcXpSPPTkpzPlK9-81" target="-V20mJcXpSPPTkpzPlK9-85">
          <mxGeometry width="50" height="50" relative="1" as="geometry">
            <mxPoint x="-720" y="620" as="sourcePoint" />
            <mxPoint x="-670" y="570" as="targetPoint" />
          </mxGeometry>
        </mxCell>
        <mxCell id="-V20mJcXpSPPTkpzPlK9-93" value="" style="endArrow=none;html=1;rounded=0;exitX=1;exitY=0.25;exitDx=0;exitDy=0;entryX=0;entryY=0.5;entryDx=0;entryDy=0;labelBackgroundColor=none;strokeColor=#A8201A;fontColor=default;" edge="1" parent="1" source="-V20mJcXpSPPTkpzPlK9-81" target="-V20mJcXpSPPTkpzPlK9-88">
          <mxGeometry width="50" height="50" relative="1" as="geometry">
            <mxPoint x="-720" y="620" as="sourcePoint" />
            <mxPoint x="-149.1385758707179" y="453.11235914182294" as="targetPoint" />
          </mxGeometry>
        </mxCell>
        <mxCell id="-V20mJcXpSPPTkpzPlK9-94" value="" style="endArrow=none;html=1;rounded=0;exitX=0.25;exitY=0;exitDx=0;exitDy=0;labelBackgroundColor=none;strokeColor=#A8201A;fontColor=default;" edge="1" parent="1" source="-V20mJcXpSPPTkpzPlK9-81" target="-V20mJcXpSPPTkpzPlK9-87">
          <mxGeometry width="50" height="50" relative="1" as="geometry">
            <mxPoint x="-270" y="450" as="sourcePoint" />
            <mxPoint x="-670" y="570" as="targetPoint" />
          </mxGeometry>
        </mxCell>
        <mxCell id="-V20mJcXpSPPTkpzPlK9-95" value="UserSubscription" style="rounded=0;whiteSpace=wrap;html=1;labelBackgroundColor=none;fillColor=#FAE5C7;strokeColor=#0F8B8D;fontColor=#143642;" vertex="1" parent="1">
          <mxGeometry x="112.5" y="550" width="120" height="60" as="geometry" />
        </mxCell>
        <mxCell id="-V20mJcXpSPPTkpzPlK9-96" value="EndDate" style="ellipse;whiteSpace=wrap;html=1;labelBackgroundColor=none;fillColor=#FAE5C7;strokeColor=#0F8B8D;fontColor=#143642;" vertex="1" parent="1">
          <mxGeometry x="270" y="560" width="80" height="30" as="geometry" />
        </mxCell>
        <mxCell id="-V20mJcXpSPPTkpzPlK9-97" value="StartDate" style="ellipse;whiteSpace=wrap;html=1;labelBackgroundColor=none;fillColor=#FAE5C7;strokeColor=#0F8B8D;fontColor=#143642;" vertex="1" parent="1">
          <mxGeometry x="260" y="530" width="80" height="30" as="geometry" />
        </mxCell>
        <mxCell id="-V20mJcXpSPPTkpzPlK9-98" value="&lt;u&gt;SubscriptionId&lt;/u&gt;" style="ellipse;whiteSpace=wrap;html=1;labelBackgroundColor=none;fillColor=#FAE5C7;strokeColor=#0F8B8D;fontColor=#143642;" vertex="1" parent="1">
          <mxGeometry x="240" y="510" width="120" height="20" as="geometry" />
        </mxCell>
        <mxCell id="-V20mJcXpSPPTkpzPlK9-99" value="IsActive" style="ellipse;whiteSpace=wrap;html=1;labelBackgroundColor=none;fillColor=#FAE5C7;strokeColor=#0F8B8D;fontColor=#143642;" vertex="1" parent="1">
          <mxGeometry x="260" y="600" width="80" height="20" as="geometry" />
        </mxCell>
        <mxCell id="-V20mJcXpSPPTkpzPlK9-100" value="" style="endArrow=none;html=1;rounded=0;entryX=0;entryY=0.5;entryDx=0;entryDy=0;exitX=1;exitY=0.75;exitDx=0;exitDy=0;labelBackgroundColor=none;strokeColor=#A8201A;fontColor=default;" edge="1" parent="1" source="-V20mJcXpSPPTkpzPlK9-95" target="-V20mJcXpSPPTkpzPlK9-99">
          <mxGeometry width="50" height="50" relative="1" as="geometry">
            <mxPoint x="170" y="340" as="sourcePoint" />
            <mxPoint x="220" y="290" as="targetPoint" />
          </mxGeometry>
        </mxCell>
        <mxCell id="-V20mJcXpSPPTkpzPlK9-101" value="" style="endArrow=none;html=1;rounded=0;entryX=0;entryY=0.5;entryDx=0;entryDy=0;exitX=1;exitY=0.5;exitDx=0;exitDy=0;labelBackgroundColor=none;strokeColor=#A8201A;fontColor=default;" edge="1" parent="1" source="-V20mJcXpSPPTkpzPlK9-95" target="-V20mJcXpSPPTkpzPlK9-96">
          <mxGeometry width="50" height="50" relative="1" as="geometry">
            <mxPoint x="170" y="340" as="sourcePoint" />
            <mxPoint x="220" y="290" as="targetPoint" />
          </mxGeometry>
        </mxCell>
        <mxCell id="-V20mJcXpSPPTkpzPlK9-102" value="" style="endArrow=none;html=1;rounded=0;entryX=0;entryY=0.5;entryDx=0;entryDy=0;labelBackgroundColor=none;strokeColor=#A8201A;fontColor=default;" edge="1" parent="1" target="-V20mJcXpSPPTkpzPlK9-97">
          <mxGeometry width="50" height="50" relative="1" as="geometry">
            <mxPoint x="230" y="560" as="sourcePoint" />
            <mxPoint x="220" y="290" as="targetPoint" />
          </mxGeometry>
        </mxCell>
        <mxCell id="-V20mJcXpSPPTkpzPlK9-103" value="" style="endArrow=none;html=1;rounded=0;exitX=0;exitY=0.5;exitDx=0;exitDy=0;entryX=0.857;entryY=0.077;entryDx=0;entryDy=0;entryPerimeter=0;labelBackgroundColor=none;strokeColor=#A8201A;fontColor=default;" edge="1" parent="1" source="-V20mJcXpSPPTkpzPlK9-98" target="-V20mJcXpSPPTkpzPlK9-95">
          <mxGeometry width="50" height="50" relative="1" as="geometry">
            <mxPoint x="170" y="340" as="sourcePoint" />
            <mxPoint x="220" y="290" as="targetPoint" />
          </mxGeometry>
        </mxCell>
        <mxCell id="-V20mJcXpSPPTkpzPlK9-104" value="Promotion" style="rounded=0;whiteSpace=wrap;html=1;labelBackgroundColor=none;fillColor=#FAE5C7;strokeColor=#0F8B8D;fontColor=#143642;" vertex="1" parent="1">
          <mxGeometry x="1040" y="405" width="120" height="60" as="geometry" />
        </mxCell>
        <mxCell id="-V20mJcXpSPPTkpzPlK9-105" value="PricePaid" style="ellipse;whiteSpace=wrap;html=1;labelBackgroundColor=none;fillColor=#FAE5C7;strokeColor=#0F8B8D;fontColor=#143642;" vertex="1" parent="1">
          <mxGeometry x="1160" y="495" width="70" height="30" as="geometry" />
        </mxCell>
        <mxCell id="-V20mJcXpSPPTkpzPlK9-106" value="EndDate" style="ellipse;whiteSpace=wrap;html=1;labelBackgroundColor=none;fillColor=#FAE5C7;strokeColor=#0F8B8D;fontColor=#143642;" vertex="1" parent="1">
          <mxGeometry x="1185" y="465" width="80" height="30" as="geometry" />
        </mxCell>
        <mxCell id="-V20mJcXpSPPTkpzPlK9-107" value="StartDate" style="ellipse;whiteSpace=wrap;html=1;labelBackgroundColor=none;fillColor=#FAE5C7;strokeColor=#0F8B8D;fontColor=#143642;" vertex="1" parent="1">
          <mxGeometry x="1185" y="435" width="90" height="25" as="geometry" />
        </mxCell>
        <mxCell id="-V20mJcXpSPPTkpzPlK9-108" value="&lt;u&gt;PromotionId&lt;/u&gt;" style="ellipse;whiteSpace=wrap;html=1;labelBackgroundColor=none;fillColor=#FAE5C7;strokeColor=#0F8B8D;fontColor=#143642;" vertex="1" parent="1">
          <mxGeometry x="1190" y="395" width="80" height="30" as="geometry" />
        </mxCell>
        <mxCell id="-V20mJcXpSPPTkpzPlK9-110" value="" style="endArrow=none;html=1;rounded=0;exitX=0.75;exitY=1;exitDx=0;exitDy=0;entryX=0;entryY=0;entryDx=0;entryDy=0;labelBackgroundColor=none;strokeColor=#A8201A;fontColor=default;" edge="1" parent="1" source="-V20mJcXpSPPTkpzPlK9-104" target="-V20mJcXpSPPTkpzPlK9-105">
          <mxGeometry width="50" height="50" relative="1" as="geometry">
            <mxPoint x="1490" y="355" as="sourcePoint" />
            <mxPoint x="1540" y="305" as="targetPoint" />
          </mxGeometry>
        </mxCell>
        <mxCell id="-V20mJcXpSPPTkpzPlK9-111" value="" style="endArrow=none;html=1;rounded=0;exitX=0.943;exitY=0.99;exitDx=0;exitDy=0;exitPerimeter=0;entryX=0;entryY=0.5;entryDx=0;entryDy=0;labelBackgroundColor=none;strokeColor=#A8201A;fontColor=default;" edge="1" parent="1" source="-V20mJcXpSPPTkpzPlK9-104" target="-V20mJcXpSPPTkpzPlK9-106">
          <mxGeometry width="50" height="50" relative="1" as="geometry">
            <mxPoint x="1490" y="355" as="sourcePoint" />
            <mxPoint x="1540" y="305" as="targetPoint" />
          </mxGeometry>
        </mxCell>
        <mxCell id="-V20mJcXpSPPTkpzPlK9-112" value="" style="endArrow=none;html=1;rounded=0;exitX=1;exitY=0.75;exitDx=0;exitDy=0;labelBackgroundColor=none;strokeColor=#A8201A;fontColor=default;" edge="1" parent="1" source="-V20mJcXpSPPTkpzPlK9-104" target="-V20mJcXpSPPTkpzPlK9-107">
          <mxGeometry width="50" height="50" relative="1" as="geometry">
            <mxPoint x="1490" y="355" as="sourcePoint" />
            <mxPoint x="1540" y="305" as="targetPoint" />
          </mxGeometry>
        </mxCell>
        <mxCell id="-V20mJcXpSPPTkpzPlK9-113" value="" style="endArrow=none;html=1;rounded=0;exitX=-0.01;exitY=0.767;exitDx=0;exitDy=0;exitPerimeter=0;labelBackgroundColor=none;strokeColor=#A8201A;fontColor=default;" edge="1" parent="1" source="-V20mJcXpSPPTkpzPlK9-108" target="-V20mJcXpSPPTkpzPlK9-104">
          <mxGeometry width="50" height="50" relative="1" as="geometry">
            <mxPoint x="1490" y="355" as="sourcePoint" />
            <mxPoint x="1540" y="305" as="targetPoint" />
          </mxGeometry>
        </mxCell>
        <mxCell id="-V20mJcXpSPPTkpzPlK9-114" value="&lt;strong data-end=&quot;1384&quot; data-start=&quot;1369&quot;&gt;Transaction&lt;/strong&gt;" style="rounded=0;whiteSpace=wrap;html=1;labelBackgroundColor=none;fillColor=#FAE5C7;strokeColor=#0F8B8D;fontColor=#143642;" vertex="1" parent="1">
          <mxGeometry x="-400" y="175" width="120" height="60" as="geometry" />
        </mxCell>
        <mxCell id="-V20mJcXpSPPTkpzPlK9-115" value="TransactionDate" style="ellipse;whiteSpace=wrap;html=1;labelBackgroundColor=none;fillColor=#FAE5C7;strokeColor=#0F8B8D;fontColor=#143642;" vertex="1" parent="1">
          <mxGeometry x="-400" y="75" width="120" height="30" as="geometry" />
        </mxCell>
        <mxCell id="-V20mJcXpSPPTkpzPlK9-116" value="Description" style="ellipse;whiteSpace=wrap;html=1;labelBackgroundColor=none;fillColor=#FAE5C7;strokeColor=#0F8B8D;fontColor=#143642;" vertex="1" parent="1">
          <mxGeometry x="-180" y="85" width="90" height="30" as="geometry" />
        </mxCell>
        <mxCell id="-V20mJcXpSPPTkpzPlK9-117" value="Amount" style="ellipse;whiteSpace=wrap;html=1;labelBackgroundColor=none;fillColor=#FAE5C7;strokeColor=#0F8B8D;fontColor=#143642;" vertex="1" parent="1">
          <mxGeometry x="-250" y="90" width="60" height="30" as="geometry" />
        </mxCell>
        <mxCell id="-V20mJcXpSPPTkpzPlK9-118" value="&lt;u&gt;TransactionId&lt;/u&gt;" style="ellipse;whiteSpace=wrap;html=1;labelBackgroundColor=none;fillColor=#FAE5C7;strokeColor=#0F8B8D;fontColor=#143642;" vertex="1" parent="1">
          <mxGeometry x="-280" y="55" width="120" height="30" as="geometry" />
        </mxCell>
        <mxCell id="-V20mJcXpSPPTkpzPlK9-119" value="" style="endArrow=none;html=1;rounded=0;exitX=1;exitY=0;exitDx=0;exitDy=0;labelBackgroundColor=none;strokeColor=#A8201A;fontColor=default;" edge="1" parent="1" source="-V20mJcXpSPPTkpzPlK9-114" target="-V20mJcXpSPPTkpzPlK9-116">
          <mxGeometry width="50" height="50" relative="1" as="geometry">
            <mxPoint x="-710" y="-5" as="sourcePoint" />
            <mxPoint x="-660" y="-55" as="targetPoint" />
          </mxGeometry>
        </mxCell>
        <mxCell id="-V20mJcXpSPPTkpzPlK9-120" value="" style="endArrow=none;html=1;rounded=0;entryX=0;entryY=0.5;entryDx=0;entryDy=0;labelBackgroundColor=none;strokeColor=#A8201A;fontColor=default;" edge="1" parent="1" source="-V20mJcXpSPPTkpzPlK9-114" target="-V20mJcXpSPPTkpzPlK9-117">
          <mxGeometry width="50" height="50" relative="1" as="geometry">
            <mxPoint x="-710" y="-5" as="sourcePoint" />
            <mxPoint x="-660" y="-55" as="targetPoint" />
          </mxGeometry>
        </mxCell>
        <mxCell id="-V20mJcXpSPPTkpzPlK9-121" value="" style="endArrow=none;html=1;rounded=0;entryX=0;entryY=1;entryDx=0;entryDy=0;exitX=0.623;exitY=0.04;exitDx=0;exitDy=0;exitPerimeter=0;labelBackgroundColor=none;strokeColor=#A8201A;fontColor=default;" edge="1" parent="1" source="-V20mJcXpSPPTkpzPlK9-114" target="-V20mJcXpSPPTkpzPlK9-118">
          <mxGeometry width="50" height="50" relative="1" as="geometry">
            <mxPoint x="-710" y="-5" as="sourcePoint" />
            <mxPoint x="-660" y="-55" as="targetPoint" />
          </mxGeometry>
        </mxCell>
        <mxCell id="-V20mJcXpSPPTkpzPlK9-122" value="" style="endArrow=none;html=1;rounded=0;entryX=0;entryY=1;entryDx=0;entryDy=0;exitX=0.25;exitY=0;exitDx=0;exitDy=0;labelBackgroundColor=none;strokeColor=#A8201A;fontColor=default;" edge="1" parent="1" source="-V20mJcXpSPPTkpzPlK9-114" target="-V20mJcXpSPPTkpzPlK9-115">
          <mxGeometry width="50" height="50" relative="1" as="geometry">
            <mxPoint x="-710" y="-5" as="sourcePoint" />
            <mxPoint x="-660" y="-55" as="targetPoint" />
          </mxGeometry>
        </mxCell>
        <mxCell id="-V20mJcXpSPPTkpzPlK9-123" value="has" style="rhombus;whiteSpace=wrap;html=1;labelBackgroundColor=none;fillColor=#FAE5C7;strokeColor=#0F8B8D;fontColor=#143642;" vertex="1" parent="1">
          <mxGeometry x="380" y="230" width="80" height="80" as="geometry" />
        </mxCell>
        <mxCell id="-V20mJcXpSPPTkpzPlK9-124" value="" style="endArrow=none;html=1;rounded=0;exitX=1;exitY=0.5;exitDx=0;exitDy=0;entryX=0;entryY=0.5;entryDx=0;entryDy=0;labelBackgroundColor=none;strokeColor=#A8201A;fontColor=default;" edge="1" parent="1" source="-V20mJcXpSPPTkpzPlK9-1" target="-V20mJcXpSPPTkpzPlK9-123">
          <mxGeometry width="50" height="50" relative="1" as="geometry">
            <mxPoint x="290" y="260" as="sourcePoint" />
            <mxPoint x="340" y="210" as="targetPoint" />
          </mxGeometry>
        </mxCell>
        <mxCell id="-V20mJcXpSPPTkpzPlK9-127" value="1" style="edgeLabel;html=1;align=center;verticalAlign=middle;resizable=0;points=[];labelBackgroundColor=none;fontColor=#143642;" vertex="1" connectable="0" parent="-V20mJcXpSPPTkpzPlK9-124">
          <mxGeometry x="-0.0607" y="1" relative="1" as="geometry">
            <mxPoint as="offset" />
          </mxGeometry>
        </mxCell>
        <mxCell id="-V20mJcXpSPPTkpzPlK9-125" value="" style="shape=link;html=1;rounded=0;exitX=1;exitY=0.5;exitDx=0;exitDy=0;entryX=0;entryY=0.75;entryDx=0;entryDy=0;labelBackgroundColor=none;strokeColor=#A8201A;fontColor=default;" edge="1" parent="1" source="-V20mJcXpSPPTkpzPlK9-123" target="-V20mJcXpSPPTkpzPlK9-18">
          <mxGeometry width="100" relative="1" as="geometry">
            <mxPoint x="530" y="239" as="sourcePoint" />
            <mxPoint x="630" y="239" as="targetPoint" />
          </mxGeometry>
        </mxCell>
        <mxCell id="-V20mJcXpSPPTkpzPlK9-128" value="M" style="edgeLabel;html=1;align=center;verticalAlign=middle;resizable=0;points=[];labelBackgroundColor=none;fontColor=#143642;" vertex="1" connectable="0" parent="-V20mJcXpSPPTkpzPlK9-125">
          <mxGeometry x="0.0876" y="-1" relative="1" as="geometry">
            <mxPoint as="offset" />
          </mxGeometry>
        </mxCell>
        <mxCell id="-V20mJcXpSPPTkpzPlK9-129" value="has" style="rhombus;whiteSpace=wrap;html=1;labelBackgroundColor=none;fillColor=#FAE5C7;strokeColor=#0F8B8D;fontColor=#143642;" vertex="1" parent="1">
          <mxGeometry x="130" y="320" width="80" height="80" as="geometry" />
        </mxCell>
        <mxCell id="-V20mJcXpSPPTkpzPlK9-130" value="" style="shape=link;html=1;rounded=0;exitX=0.5;exitY=0;exitDx=0;exitDy=0;entryX=0.5;entryY=1;entryDx=0;entryDy=0;labelBackgroundColor=none;strokeColor=#A8201A;fontColor=default;" edge="1" parent="1" source="-V20mJcXpSPPTkpzPlK9-95" target="-V20mJcXpSPPTkpzPlK9-129">
          <mxGeometry width="100" relative="1" as="geometry">
            <mxPoint x="670" y="430" as="sourcePoint" />
            <mxPoint x="770" y="430" as="targetPoint" />
          </mxGeometry>
        </mxCell>
        <mxCell id="-V20mJcXpSPPTkpzPlK9-131" value="" style="endArrow=none;html=1;rounded=0;entryX=0.42;entryY=0.977;entryDx=0;entryDy=0;entryPerimeter=0;exitX=0.5;exitY=0;exitDx=0;exitDy=0;labelBackgroundColor=none;strokeColor=#A8201A;fontColor=default;" edge="1" parent="1" source="-V20mJcXpSPPTkpzPlK9-129" target="-V20mJcXpSPPTkpzPlK9-1">
          <mxGeometry width="50" height="50" relative="1" as="geometry">
            <mxPoint x="700" y="450" as="sourcePoint" />
            <mxPoint x="750" y="400" as="targetPoint" />
          </mxGeometry>
        </mxCell>
        <mxCell id="-V20mJcXpSPPTkpzPlK9-132" value="has" style="rhombus;whiteSpace=wrap;html=1;labelBackgroundColor=none;fillColor=#FAE5C7;strokeColor=#0F8B8D;fontColor=#143642;" vertex="1" parent="1">
          <mxGeometry x="-70" y="520" width="80" height="80" as="geometry" />
        </mxCell>
        <mxCell id="-V20mJcXpSPPTkpzPlK9-133" value="" style="shape=link;html=1;rounded=0;entryX=0;entryY=0.5;entryDx=0;entryDy=0;exitX=1;exitY=0.5;exitDx=0;exitDy=0;labelBackgroundColor=none;strokeColor=#A8201A;fontColor=default;" edge="1" parent="1" source="-V20mJcXpSPPTkpzPlK9-132" target="-V20mJcXpSPPTkpzPlK9-95">
          <mxGeometry width="100" relative="1" as="geometry">
            <mxPoint x="-100" y="430" as="sourcePoint" />
            <mxPoint y="430" as="targetPoint" />
          </mxGeometry>
        </mxCell>
        <mxCell id="-V20mJcXpSPPTkpzPlK9-136" value="M" style="edgeLabel;html=1;align=center;verticalAlign=middle;resizable=0;points=[];labelBackgroundColor=none;fontColor=#143642;" vertex="1" connectable="0" parent="-V20mJcXpSPPTkpzPlK9-133">
          <mxGeometry x="0.193" y="-3" relative="1" as="geometry">
            <mxPoint as="offset" />
          </mxGeometry>
        </mxCell>
        <mxCell id="-V20mJcXpSPPTkpzPlK9-134" value="" style="endArrow=none;html=1;rounded=0;exitX=1;exitY=0.75;exitDx=0;exitDy=0;entryX=0;entryY=0.5;entryDx=0;entryDy=0;labelBackgroundColor=none;strokeColor=#A8201A;fontColor=default;" edge="1" parent="1" source="-V20mJcXpSPPTkpzPlK9-81" target="-V20mJcXpSPPTkpzPlK9-132">
          <mxGeometry width="50" height="50" relative="1" as="geometry">
            <mxPoint x="-80" y="450" as="sourcePoint" />
            <mxPoint x="-30" y="400" as="targetPoint" />
          </mxGeometry>
        </mxCell>
        <mxCell id="-V20mJcXpSPPTkpzPlK9-135" value="1" style="edgeLabel;html=1;align=center;verticalAlign=middle;resizable=0;points=[];labelBackgroundColor=none;fontColor=#143642;" vertex="1" connectable="0" parent="-V20mJcXpSPPTkpzPlK9-134">
          <mxGeometry x="0.0028" y="1" relative="1" as="geometry">
            <mxPoint as="offset" />
          </mxGeometry>
        </mxCell>
        <mxCell id="-V20mJcXpSPPTkpzPlK9-137" value="make" style="rhombus;whiteSpace=wrap;html=1;labelBackgroundColor=none;fillColor=#FAE5C7;strokeColor=#0F8B8D;fontColor=#143642;" vertex="1" parent="1">
          <mxGeometry x="-150" y="175" width="80" height="80" as="geometry" />
        </mxCell>
        <mxCell id="-V20mJcXpSPPTkpzPlK9-138" value="" style="shape=link;html=1;rounded=0;exitX=1;exitY=0.5;exitDx=0;exitDy=0;entryX=0;entryY=0.5;entryDx=0;entryDy=0;labelBackgroundColor=none;strokeColor=#A8201A;fontColor=default;" edge="1" parent="1" source="-V20mJcXpSPPTkpzPlK9-114" target="-V20mJcXpSPPTkpzPlK9-137">
          <mxGeometry width="100" relative="1" as="geometry">
            <mxPoint x="120" y="380" as="sourcePoint" />
            <mxPoint x="220" y="380" as="targetPoint" />
          </mxGeometry>
        </mxCell>
        <mxCell id="-V20mJcXpSPPTkpzPlK9-140" value="M" style="edgeLabel;html=1;align=center;verticalAlign=middle;resizable=0;points=[];labelBackgroundColor=none;fontColor=#143642;" vertex="1" connectable="0" parent="-V20mJcXpSPPTkpzPlK9-138">
          <mxGeometry x="-0.0642" relative="1" as="geometry">
            <mxPoint as="offset" />
          </mxGeometry>
        </mxCell>
        <mxCell id="-V20mJcXpSPPTkpzPlK9-139" value="" style="endArrow=none;html=1;rounded=0;exitX=1;exitY=0.5;exitDx=0;exitDy=0;entryX=0;entryY=0.75;entryDx=0;entryDy=0;labelBackgroundColor=none;strokeColor=#A8201A;fontColor=default;" edge="1" parent="1" source="-V20mJcXpSPPTkpzPlK9-137" target="-V20mJcXpSPPTkpzPlK9-1">
          <mxGeometry width="50" height="50" relative="1" as="geometry">
            <mxPoint x="140" y="400" as="sourcePoint" />
            <mxPoint x="110" y="230" as="targetPoint" />
          </mxGeometry>
        </mxCell>
        <mxCell id="-V20mJcXpSPPTkpzPlK9-141" value="1" style="edgeLabel;html=1;align=center;verticalAlign=middle;resizable=0;points=[];labelBackgroundColor=none;fontColor=#143642;" vertex="1" connectable="0" parent="-V20mJcXpSPPTkpzPlK9-139">
          <mxGeometry x="-0.1783" y="-2" relative="1" as="geometry">
            <mxPoint as="offset" />
          </mxGeometry>
        </mxCell>
        <mxCell id="-V20mJcXpSPPTkpzPlK9-142" value="has" style="rhombus;whiteSpace=wrap;html=1;labelBackgroundColor=none;fillColor=#FAE5C7;strokeColor=#0F8B8D;fontColor=#143642;" vertex="1" parent="1">
          <mxGeometry x="660" y="375" width="80" height="80" as="geometry" />
        </mxCell>
        <mxCell id="-V20mJcXpSPPTkpzPlK9-143" value="" style="shape=link;html=1;rounded=0;entryX=0.5;entryY=1;entryDx=0;entryDy=0;exitX=0.5;exitY=0;exitDx=0;exitDy=0;labelBackgroundColor=none;strokeColor=#A8201A;fontColor=default;" edge="1" parent="1" source="-V20mJcXpSPPTkpzPlK9-55" target="-V20mJcXpSPPTkpzPlK9-142">
          <mxGeometry width="100" relative="1" as="geometry">
            <mxPoint x="270" y="510" as="sourcePoint" />
            <mxPoint x="370" y="510" as="targetPoint" />
          </mxGeometry>
        </mxCell>
        <mxCell id="-V20mJcXpSPPTkpzPlK9-146" value="M" style="edgeLabel;html=1;align=center;verticalAlign=middle;resizable=0;points=[];labelBackgroundColor=none;fontColor=#143642;" vertex="1" connectable="0" parent="-V20mJcXpSPPTkpzPlK9-143">
          <mxGeometry x="-0.0812" relative="1" as="geometry">
            <mxPoint as="offset" />
          </mxGeometry>
        </mxCell>
        <mxCell id="-V20mJcXpSPPTkpzPlK9-144" value="" style="endArrow=none;html=1;rounded=0;entryX=0.657;entryY=1.023;entryDx=0;entryDy=0;entryPerimeter=0;exitX=0.5;exitY=0;exitDx=0;exitDy=0;labelBackgroundColor=none;strokeColor=#A8201A;fontColor=default;" edge="1" parent="1" source="-V20mJcXpSPPTkpzPlK9-142" target="-V20mJcXpSPPTkpzPlK9-18">
          <mxGeometry width="50" height="50" relative="1" as="geometry">
            <mxPoint x="300" y="540" as="sourcePoint" />
            <mxPoint x="350" y="490" as="targetPoint" />
          </mxGeometry>
        </mxCell>
        <mxCell id="-V20mJcXpSPPTkpzPlK9-145" value="1" style="edgeLabel;html=1;align=center;verticalAlign=middle;resizable=0;points=[];labelBackgroundColor=none;fontColor=#143642;" vertex="1" connectable="0" parent="-V20mJcXpSPPTkpzPlK9-144">
          <mxGeometry x="-0.1852" y="-1" relative="1" as="geometry">
            <mxPoint as="offset" />
          </mxGeometry>
        </mxCell>
        <mxCell id="-V20mJcXpSPPTkpzPlK9-147" value="make" style="rhombus;whiteSpace=wrap;html=1;labelBackgroundColor=none;fillColor=#FAE5C7;strokeColor=#0F8B8D;fontColor=#143642;" vertex="1" parent="1">
          <mxGeometry x="250" y="275" width="80" height="80" as="geometry" />
        </mxCell>
        <mxCell id="-V20mJcXpSPPTkpzPlK9-148" value="" style="endArrow=none;html=1;rounded=0;entryX=1;entryY=1;entryDx=0;entryDy=0;labelBackgroundColor=none;strokeColor=#A8201A;fontColor=default;" edge="1" parent="1" source="-V20mJcXpSPPTkpzPlK9-147" target="-V20mJcXpSPPTkpzPlK9-1">
          <mxGeometry width="50" height="50" relative="1" as="geometry">
            <mxPoint x="300" y="540" as="sourcePoint" />
            <mxPoint x="350" y="490" as="targetPoint" />
          </mxGeometry>
        </mxCell>
        <mxCell id="-V20mJcXpSPPTkpzPlK9-152" value="1" style="edgeLabel;html=1;align=center;verticalAlign=middle;resizable=0;points=[];labelBackgroundColor=none;fontColor=#143642;" vertex="1" connectable="0" parent="-V20mJcXpSPPTkpzPlK9-148">
          <mxGeometry x="-0.146" relative="1" as="geometry">
            <mxPoint as="offset" />
          </mxGeometry>
        </mxCell>
        <mxCell id="-V20mJcXpSPPTkpzPlK9-149" value="" style="shape=link;html=1;rounded=0;exitX=0.63;exitY=0.84;exitDx=0;exitDy=0;exitPerimeter=0;entryX=0;entryY=0.5;entryDx=0;entryDy=0;labelBackgroundColor=none;strokeColor=#A8201A;fontColor=default;" edge="1" parent="1" source="-V20mJcXpSPPTkpzPlK9-147" target="-V20mJcXpSPPTkpzPlK9-66">
          <mxGeometry width="100" relative="1" as="geometry">
            <mxPoint x="270" y="510" as="sourcePoint" />
            <mxPoint x="370" y="510" as="targetPoint" />
          </mxGeometry>
        </mxCell>
        <mxCell id="-V20mJcXpSPPTkpzPlK9-150" value="M" style="edgeLabel;html=1;align=center;verticalAlign=middle;resizable=0;points=[];labelBackgroundColor=none;fontColor=#143642;" vertex="1" connectable="0" parent="-V20mJcXpSPPTkpzPlK9-149">
          <mxGeometry x="0.1397" y="-2" relative="1" as="geometry">
            <mxPoint as="offset" />
          </mxGeometry>
        </mxCell>
        <mxCell id="-V20mJcXpSPPTkpzPlK9-153" value="Inquiry" style="rhombus;whiteSpace=wrap;html=1;labelBackgroundColor=none;fillColor=#FAE5C7;strokeColor=#0F8B8D;fontColor=#143642;" vertex="1" parent="1">
          <mxGeometry x="580" y="320" width="80" height="80" as="geometry" />
        </mxCell>
        <mxCell id="-V20mJcXpSPPTkpzPlK9-154" value="" style="endArrow=none;html=1;rounded=0;entryX=0.43;entryY=0.97;entryDx=0;entryDy=0;entryPerimeter=0;exitX=1;exitY=0.5;exitDx=0;exitDy=0;labelBackgroundColor=none;strokeColor=#A8201A;fontColor=default;" edge="1" parent="1" source="-V20mJcXpSPPTkpzPlK9-153" target="-V20mJcXpSPPTkpzPlK9-18">
          <mxGeometry width="50" height="50" relative="1" as="geometry">
            <mxPoint x="300" y="540" as="sourcePoint" />
            <mxPoint x="350" y="490" as="targetPoint" />
          </mxGeometry>
        </mxCell>
        <mxCell id="-V20mJcXpSPPTkpzPlK9-156" value="1" style="edgeLabel;html=1;align=center;verticalAlign=middle;resizable=0;points=[];labelBackgroundColor=none;fontColor=#143642;" vertex="1" connectable="0" parent="-V20mJcXpSPPTkpzPlK9-154">
          <mxGeometry x="-0.1132" y="-1" relative="1" as="geometry">
            <mxPoint as="offset" />
          </mxGeometry>
        </mxCell>
        <mxCell id="-V20mJcXpSPPTkpzPlK9-155" value="" style="shape=link;html=1;rounded=0;exitX=1;exitY=0.5;exitDx=0;exitDy=0;entryX=0;entryY=0.5;entryDx=0;entryDy=0;labelBackgroundColor=none;strokeColor=#A8201A;fontColor=default;" edge="1" parent="1" source="-V20mJcXpSPPTkpzPlK9-66" target="-V20mJcXpSPPTkpzPlK9-153">
          <mxGeometry width="100" relative="1" as="geometry">
            <mxPoint x="270" y="510" as="sourcePoint" />
            <mxPoint x="570" y="330" as="targetPoint" />
          </mxGeometry>
        </mxCell>
        <mxCell id="-V20mJcXpSPPTkpzPlK9-157" value="M" style="edgeLabel;html=1;align=center;verticalAlign=middle;resizable=0;points=[];labelBackgroundColor=none;fontColor=#143642;" vertex="1" connectable="0" parent="-V20mJcXpSPPTkpzPlK9-155">
          <mxGeometry x="0.286" y="-3" relative="1" as="geometry">
            <mxPoint as="offset" />
          </mxGeometry>
        </mxCell>
        <mxCell id="-V20mJcXpSPPTkpzPlK9-158" value="Favorite" style="rounded=0;whiteSpace=wrap;html=1;labelBackgroundColor=none;fillColor=#FAE5C7;strokeColor=#0F8B8D;fontColor=#143642;" vertex="1" parent="1">
          <mxGeometry x="320" y="35" width="120" height="60" as="geometry" />
        </mxCell>
        <mxCell id="-V20mJcXpSPPTkpzPlK9-159" value="&lt;u&gt;FavoriteId&lt;/u&gt;" style="ellipse;whiteSpace=wrap;html=1;labelBackgroundColor=none;fillColor=#FAE5C7;strokeColor=#0F8B8D;fontColor=#143642;" vertex="1" parent="1">
          <mxGeometry x="450" y="-10" width="120" height="30" as="geometry" />
        </mxCell>
        <mxCell id="-V20mJcXpSPPTkpzPlK9-160" value="" style="endArrow=none;html=1;rounded=0;exitX=1;exitY=0.25;exitDx=0;exitDy=0;labelBackgroundColor=none;strokeColor=#A8201A;fontColor=default;" edge="1" parent="1" source="-V20mJcXpSPPTkpzPlK9-158" target="-V20mJcXpSPPTkpzPlK9-159">
          <mxGeometry width="50" height="50" relative="1" as="geometry">
            <mxPoint x="70" y="-140" as="sourcePoint" />
            <mxPoint x="120" y="-190" as="targetPoint" />
          </mxGeometry>
        </mxCell>
        <mxCell id="-V20mJcXpSPPTkpzPlK9-161" value="put" style="rhombus;whiteSpace=wrap;html=1;labelBackgroundColor=none;fillColor=#FAE5C7;strokeColor=#0F8B8D;fontColor=#143642;" vertex="1" parent="1">
          <mxGeometry x="380" y="120" width="80" height="80" as="geometry" />
        </mxCell>
        <mxCell id="-V20mJcXpSPPTkpzPlK9-164" value="" style="endArrow=none;html=1;rounded=0;entryX=1;entryY=0.25;entryDx=0;entryDy=0;exitX=0;exitY=0.5;exitDx=0;exitDy=0;labelBackgroundColor=none;strokeColor=#A8201A;fontColor=default;" edge="1" parent="1" source="-V20mJcXpSPPTkpzPlK9-161" target="-V20mJcXpSPPTkpzPlK9-1">
          <mxGeometry width="50" height="50" relative="1" as="geometry">
            <mxPoint x="550" y="380" as="sourcePoint" />
            <mxPoint x="600" y="330" as="targetPoint" />
          </mxGeometry>
        </mxCell>
        <mxCell id="-V20mJcXpSPPTkpzPlK9-165" value="" style="endArrow=none;html=1;rounded=0;entryX=0.5;entryY=0;entryDx=0;entryDy=0;labelBackgroundColor=none;strokeColor=#A8201A;fontColor=default;" edge="1" parent="1" source="-V20mJcXpSPPTkpzPlK9-158" target="-V20mJcXpSPPTkpzPlK9-161">
          <mxGeometry width="50" height="50" relative="1" as="geometry">
            <mxPoint x="550" y="380" as="sourcePoint" />
            <mxPoint x="600" y="330" as="targetPoint" />
          </mxGeometry>
        </mxCell>
        <mxCell id="-V20mJcXpSPPTkpzPlK9-166" value="" style="endArrow=none;html=1;rounded=0;entryX=0;entryY=0.25;entryDx=0;entryDy=0;labelBackgroundColor=none;strokeColor=#A8201A;fontColor=default;" edge="1" parent="1" source="-V20mJcXpSPPTkpzPlK9-161" target="-V20mJcXpSPPTkpzPlK9-18">
          <mxGeometry width="50" height="50" relative="1" as="geometry">
            <mxPoint x="550" y="380" as="sourcePoint" />
            <mxPoint x="600" y="330" as="targetPoint" />
          </mxGeometry>
        </mxCell>
        <mxCell id="-V20mJcXpSPPTkpzPlK9-167" value="make" style="rhombus;whiteSpace=wrap;html=1;labelBackgroundColor=none;fillColor=#FAE5C7;strokeColor=#0F8B8D;fontColor=#143642;" vertex="1" parent="1">
          <mxGeometry x="880" y="325" width="80" height="80" as="geometry" />
        </mxCell>
        <mxCell id="-V20mJcXpSPPTkpzPlK9-168" value="" style="shape=link;html=1;rounded=0;entryX=0;entryY=0.5;entryDx=0;entryDy=0;exitX=0.875;exitY=0.688;exitDx=0;exitDy=0;exitPerimeter=0;labelBackgroundColor=none;strokeColor=#A8201A;fontColor=default;" edge="1" parent="1" source="-V20mJcXpSPPTkpzPlK9-167" target="-V20mJcXpSPPTkpzPlK9-104">
          <mxGeometry width="100" relative="1" as="geometry">
            <mxPoint x="630" y="430" as="sourcePoint" />
            <mxPoint x="730" y="430" as="targetPoint" />
          </mxGeometry>
        </mxCell>
        <mxCell id="-V20mJcXpSPPTkpzPlK9-171" value="M" style="edgeLabel;html=1;align=center;verticalAlign=middle;resizable=0;points=[];labelBackgroundColor=none;fontColor=#143642;" vertex="1" connectable="0" parent="-V20mJcXpSPPTkpzPlK9-168">
          <mxGeometry x="0.3697" y="-5" relative="1" as="geometry">
            <mxPoint as="offset" />
          </mxGeometry>
        </mxCell>
        <mxCell id="-V20mJcXpSPPTkpzPlK9-169" value="" style="endArrow=none;html=1;rounded=0;entryX=0.917;entryY=0.97;entryDx=0;entryDy=0;entryPerimeter=0;labelBackgroundColor=none;strokeColor=#A8201A;fontColor=default;" edge="1" parent="1" source="-V20mJcXpSPPTkpzPlK9-167" target="-V20mJcXpSPPTkpzPlK9-18">
          <mxGeometry width="50" height="50" relative="1" as="geometry">
            <mxPoint x="660" y="450" as="sourcePoint" />
            <mxPoint x="710" y="400" as="targetPoint" />
          </mxGeometry>
        </mxCell>
        <mxCell id="-V20mJcXpSPPTkpzPlK9-170" value="1" style="edgeLabel;html=1;align=center;verticalAlign=middle;resizable=0;points=[];labelBackgroundColor=none;fontColor=#143642;" vertex="1" connectable="0" parent="-V20mJcXpSPPTkpzPlK9-169">
          <mxGeometry x="-0.2084" y="-2" relative="1" as="geometry">
            <mxPoint as="offset" />
          </mxGeometry>
        </mxCell>
        <mxCell id="-V20mJcXpSPPTkpzPlK9-172" value="where" style="rhombus;whiteSpace=wrap;html=1;labelBackgroundColor=none;fillColor=#FAE5C7;strokeColor=#0F8B8D;fontColor=#143642;" vertex="1" parent="1">
          <mxGeometry x="795" y="420" width="80" height="80" as="geometry" />
        </mxCell>
        <mxCell id="-V20mJcXpSPPTkpzPlK9-175" value="" style="endArrow=none;html=1;rounded=0;entryX=0.5;entryY=1;entryDx=0;entryDy=0;labelBackgroundColor=none;strokeColor=#A8201A;fontColor=default;" edge="1" parent="1" source="-V20mJcXpSPPTkpzPlK9-61" target="-V20mJcXpSPPTkpzPlK9-172">
          <mxGeometry width="50" height="50" relative="1" as="geometry">
            <mxPoint x="490" y="410" as="sourcePoint" />
            <mxPoint x="540" y="360" as="targetPoint" />
          </mxGeometry>
        </mxCell>
        <mxCell id="-V20mJcXpSPPTkpzPlK9-177" value="1" style="edgeLabel;html=1;align=center;verticalAlign=middle;resizable=0;points=[];labelBackgroundColor=none;fontColor=#143642;" vertex="1" connectable="0" parent="-V20mJcXpSPPTkpzPlK9-175">
          <mxGeometry x="-0.0287" y="4" relative="1" as="geometry">
            <mxPoint as="offset" />
          </mxGeometry>
        </mxCell>
        <mxCell id="-V20mJcXpSPPTkpzPlK9-176" value="" style="shape=link;html=1;rounded=0;entryX=0.75;entryY=1;entryDx=0;entryDy=0;labelBackgroundColor=none;strokeColor=#A8201A;fontColor=default;" edge="1" parent="1" source="-V20mJcXpSPPTkpzPlK9-172" target="-V20mJcXpSPPTkpzPlK9-18">
          <mxGeometry width="100" relative="1" as="geometry">
            <mxPoint x="470" y="390" as="sourcePoint" />
            <mxPoint x="570" y="390" as="targetPoint" />
          </mxGeometry>
        </mxCell>
        <mxCell id="-V20mJcXpSPPTkpzPlK9-178" value="M" style="edgeLabel;html=1;align=center;verticalAlign=middle;resizable=0;points=[];labelBackgroundColor=none;fontColor=#143642;" vertex="1" connectable="0" parent="-V20mJcXpSPPTkpzPlK9-176">
          <mxGeometry x="-0.1331" y="2" relative="1" as="geometry">
            <mxPoint y="1" as="offset" />
          </mxGeometry>
        </mxCell>
        <mxCell id="-V20mJcXpSPPTkpzPlK9-180" value="kind" style="rhombus;whiteSpace=wrap;html=1;labelBackgroundColor=none;fillColor=#FAE5C7;strokeColor=#0F8B8D;fontColor=#143642;" vertex="1" parent="1">
          <mxGeometry x="940" y="210" width="80" height="80" as="geometry" />
        </mxCell>
        <mxCell id="-V20mJcXpSPPTkpzPlK9-181" value="" style="shape=link;html=1;rounded=0;exitX=1;exitY=0.5;exitDx=0;exitDy=0;entryX=0;entryY=0.5;entryDx=0;entryDy=0;labelBackgroundColor=none;strokeColor=#A8201A;fontColor=default;" edge="1" parent="1" source="-V20mJcXpSPPTkpzPlK9-18" target="-V20mJcXpSPPTkpzPlK9-180">
          <mxGeometry width="100" relative="1" as="geometry">
            <mxPoint x="470" y="270" as="sourcePoint" />
            <mxPoint x="900" y="240" as="targetPoint" />
          </mxGeometry>
        </mxCell>
        <mxCell id="-V20mJcXpSPPTkpzPlK9-184" value="M" style="edgeLabel;html=1;align=center;verticalAlign=middle;resizable=0;points=[];labelBackgroundColor=none;fontColor=#143642;" vertex="1" connectable="0" parent="-V20mJcXpSPPTkpzPlK9-181">
          <mxGeometry x="-0.2365" y="-2" relative="1" as="geometry">
            <mxPoint as="offset" />
          </mxGeometry>
        </mxCell>
        <mxCell id="-V20mJcXpSPPTkpzPlK9-182" value="" style="endArrow=none;html=1;rounded=0;exitX=0;exitY=0.5;exitDx=0;exitDy=0;entryX=1;entryY=0.5;entryDx=0;entryDy=0;labelBackgroundColor=none;strokeColor=#A8201A;fontColor=default;" edge="1" parent="1" source="-V20mJcXpSPPTkpzPlK9-73" target="-V20mJcXpSPPTkpzPlK9-180">
          <mxGeometry width="50" height="50" relative="1" as="geometry">
            <mxPoint x="490" y="290" as="sourcePoint" />
            <mxPoint x="540" y="240" as="targetPoint" />
          </mxGeometry>
        </mxCell>
        <mxCell id="-V20mJcXpSPPTkpzPlK9-183" value="1" style="edgeLabel;html=1;align=center;verticalAlign=middle;resizable=0;points=[];labelBackgroundColor=none;fontColor=#143642;" vertex="1" connectable="0" parent="-V20mJcXpSPPTkpzPlK9-182">
          <mxGeometry x="0.0111" y="-3" relative="1" as="geometry">
            <mxPoint x="-1" as="offset" />
          </mxGeometry>
        </mxCell>
      </root>
    </mxGraphModel>
  </diagram>
</mxfile>
